inDegrees=yes
name=ik_lifting_orientations
DataType=double
version=3
OpenSimVersion=4.5-2024-01-10-34fd6af
endheader
time	pelvis_tilt	pelvis_list	pelvis_rotation	pelvis_tx	pelvis_ty	pelvis_tz	hip_flexion_r	hip_adduction_r	hip_rotation_r	knee_angle_r	knee_angle_r_beta	ankle_angle_r	subtalar_angle_r	mtp_angle_r	hip_flexion_l	hip_adduction_l	hip_rotation_l	knee_angle_l	knee_angle_l_beta	ankle_angle_l	subtalar_angle_l	mtp_angle_l	lumbar_extension	lumbar_bending	lumbar_rotation	arm_flex_r	arm_add_r	arm_rot_r	elbow_flex_r	pro_sup_r	wrist_flex_r	wrist_dev_r	arm_flex_l	arm_add_l	arm_rot_l	elbow_flex_l	pro_sup_l	wrist_flex_l	wrist_dev_l
1.08	36.05392534493468	-15.02292070082977	59.63817356888897	0	0.9400000009320483	0	17.32413134091539	-7.917399472775626	0	24.17998880993296	0.4220204178287155	-4.519659418548384	0	0	17.32413134091539	-7.917399472775626	0	24.17998880993296	0.4220204178287155	-4.519659418548384	0	0	-7.930225679371431	-12.12254419105388	-20.02599031919415	-25.44393225960915	38.6441536820699	37.02719292319021	11.52498881859816	-55.91914225540296	0	0	0	-2.628260497974569	0	34.28483484768948	-2.400472069766999e-05	0	0
1.09	36.03983239754077	-15.01418453074699	59.64291429351135	0	0.9400000009320483	0	17.33213549979693	-7.919227127699661	0	24.19086380994641	0.4222102223851046	-4.520208078737491	0	0	17.33213549979693	-7.919227127699661	0	24.19086380994641	0.4222102223851046	-4.520208078737491	0	0	-7.950827862024559	-12.14708611636581	-20.0205236828644	-25.70840008098342	38.06920407688124	36.33660460278768	12.19939883469238	-55.90336035955814	0	0	0	-2.629865260057865	0	34.30048817525554	-2.401883136844867e-05	0	0
1.1	36.04895227991967	-15.01485852999514	59.63899303303196	0	0.9400000009320483	0	17.34111258346788	-7.921276426497387	0	24.20305602035483	0.4224230165998276	-4.52082314980006	0	0	17.34111258346788	-7.921276426497387	0	24.20305602035483	0.4224230165998276	-4.52082314980006	0	0	-7.946590465302395	-12.13071986539547	-20.01105671646138	-26.07903276262947	37.53131532508232	35.60543687767588	12.92172711789657	-55.88566321855613	0	0	0	-2.631665023496474	0	34.31804122797604	-2.403465741294606e-05	0	0
1.11	36.04464786577206	-15.01204254186429	59.64369450186003	0	0.9400000009320483	0	17.34906550648203	-7.923090346041578	0	24.21385574717055	0.4226115073910777	-4.521367377995126	0	0	17.34906550648203	-7.923090346041578	0	24.21385574717055	0.4226115073910777	-4.521367377995126	0	0	-7.95320957175285	-12.14173247276895	-20.01384210400424	-26.42169356439431	37.02383646993908	34.92583723402995	13.61081449417309	-55.86999108719534	0	0	0	-2.633260434803342	0	34.33358592377008	-2.404868441646278e-05	0	0
1.12	36.04915522662338	-15.01440777844976	59.64085447042942	0	0.9400000009320483	0	17.3573776659548	-7.924985225734779	0	24.22514035866868	0.4228084610165285	-4.521935746163038	0	0	17.3573776659548	-7.924985225734779	0	24.22514035866868	0.4228084610165285	-4.521935746163038	0	0	-7.950313366030533	-12.1296387322086	-20.00469472987395	-26.75747757819886	36.55613318622502	34.38766141592281	14.24677506348274	-55.85361531328801	0	0	0	-2.634928345367422	0	34.34982865672693	-2.40633481882133e-05	0	0
1.13	37.6193808019065	-15.35665985960117	59.95282147698399	0	0.9400000009320483	0	17.36833068290158	-7.927471419149395	0	24.24002701579108	0.4230682821979299	-4.522680563820471	0	0	17.36833068290158	-7.927471419149395	0	24.24002701579108	0.4230682821979299	-4.522680563820471	0	0	-8.326398407030277	-10.67519519282529	-19.71065359453695	-27.10521068142429	36.22137101523482	33.93472911868776	14.65610079870653	-55.83207035624176	0	0	0	-2.637135356925255	0	34.37119951165576	-2.408272785830801e-05	0	0
1.14	37.63695696918084	-15.36836064321854	59.94167265475227	0	0.9400000009320483	0	17.38083242728362	-7.930311715015611	0	24.25700096916161	0.4233645335713256	-4.523531461964531	0	0	17.38083242728362	-7.930311715015611	0	24.25700096916161	0.4233645335713256	-4.523531461964531	0	0	-7.581272559231925	-11.37537647193707	-19.14749424047458	-28.03598245611401	36.53834406858086	33.18678541627708	14.88276976321974	-55.80747395708816	0	0	0	-2.639650734357364	0	34.39559700662166	-2.410482636589042e-05	0	0
1.15	37.62490305454099	-15.36241584256644	59.93559868897001	0	0.9400000009320483	0	17.39095502000474	-7.932616833062109	0	24.27072414376703	0.4236040481520162	-4.524222324004166	0	0	17.39095502000474	-7.932616833062109	0	24.27072414376703	0.4236040481520162	-4.524222324004166	0	0	-7.583511681502753	-11.37658983367819	-19.15277409133959	-28.23122694488465	36.32062473725799	32.69971657728686	15.0781014737059	-55.78754549263917	0	0	0	-2.641681975132053	0	34.41536394249249	-2.412268671068343e-05	0	0
1.16	37.63729403880635	-15.34217621837157	59.96321384444747	0	0.9400000009320483	0	17.39395459473863	-7.933296250048646	0	24.27479753778411	0.4236751422893453	-4.524425652656787	0	0	17.39395459473863	-7.933296250048646	0	24.27479753778411	0.4236751422893453	-4.524425652656787	0	0	-7.601575225206594	-11.41781294444027	-19.21612711430452	-28.44018297571152	36.2803931646659	32.28686187350685	15.09637213919556	-55.78165113586227	0	0	0	-2.64228706414497	0	34.42121082979707	-2.412799883849042e-05	0	0
1.17	37.63382073515712	-15.36644277524653	59.94172445794952	0	0.9400000009320483	0	17.4076185237711	-7.936406424351209	0	24.29330891294898	0.4239982267350442	-4.525357453572698	0	0	17.4076185237711	-7.936406424351209	0	24.29330891294898	0.4239982267350442	-4.525357453572698	0	0	-7.578950550754057	-11.37574119926065	-19.15461368901641	-28.50108360718917	36.22682777182924	31.7902840893446	15.07969526673627	-55.75475910622905	0	0	0	-2.645028741976974	0	34.44788510943586	-2.415210797333e-05	0	0
1.18	37.62911748755879	-15.35113424870401	59.95734768785763	0	0.9400000009320483	0	17.41213226528784	-7.937430300494817	0	24.29942907341493	0.4241050436859255	-4.52566389199298	0	0	17.41213226528784	-7.937430300494817	0	24.29942907341493	0.4241050436859255	-4.52566389199298	0	0	-7.588885626738453	-11.41745891253595	-19.20568245233619	-28.63213248907424	36.12113129062016	31.3786588521209	15.05589202744889	-55.74588660863441	0	0	0	-2.645937375888156	0	34.45668607244795	-2.416009056015713e-05	0	0
1.19	37.63484333720493	-15.36546249871975	59.9426821932309	0	0.9400000009320483	0	17.42634011812391	-7.940661007544015	0	24.31866487394478	0.4244407717394282	-4.526631255256383	0	0	17.42634011812391	-7.940661007544015	0	24.31866487394478	0.4244407717394282	-4.526631255256383	0	0	-7.578204186432772	-11.37604181942061	-19.15448170017241	-28.57512218501731	36.12977329019994	30.65969996994165	15.00066783139296	-55.71793885568741	0	0	0	-2.648789339581808	0	34.48440792750673	-2.418516842417392e-05	0	0
1.2	37.64114148564435	-15.35893820653773	59.92427356180135	0	0.9400000009320483	0	17.44087822231662	-7.94396416888788	0	24.33833838703816	0.4247841393183419	-4.527619881468036	0	0	17.44087822231662	-7.94396416888788	0	24.33833838703816	0.4247841393183419	-4.527619881468036	0	0	-7.583868391932423	-11.36603041402264	-19.1344667665843	-28.54678843261077	36.1584995696769	30.08569127090427	14.83156312880375	-55.68935324698708	0	0	0	-2.651708599725431	0	34.51276280138213	-2.421083688599814e-05	0	0
1.21	37.62898390888697	-15.35343836586868	59.95285013731317	0	0.9400000009320483	0	17.44522978525132	-7.944949357885022	0	24.34423192894416	0.4248870010292058	-4.52791442798855	0	0	17.44522978525132	-7.944949357885022	0	24.34423192894416	0.4248870010292058	-4.52791442798855	0	0	-7.564321980806048	-11.39821826389756	-19.19375927822511	-28.50665431239305	36.1624024211466	29.92709018605729	14.69057322193492	-55.68080781673663	0	0	0	-2.652585258972097	0	34.5212395595661	-2.421853789294649e-05	0	0
1.22	37.62615864212892	-15.36612409622714	59.96063016510833	0	0.9400000009320483	0	17.45327727127081	-7.946773419199322	0	24.35512273587827	0.4250770814684051	-4.528459888691194	0	0	17.45327727127081	-7.946773419199322	0	24.35512273587827	0.4250770814684051	-4.528459888691194	0	0	-7.561003374178525	-11.40117785431201	-19.203358413709	-28.41408683898209	36.28173869547635	29.5504227627354	14.35729172209387	-55.66499942472349	0	0	0	-2.654204297755727	0	34.53692076688092	-2.423276646881355e-05	0	0
1.23	37.63796352897758	-15.3612976598695	59.94060111902948	0	0.9400000009320483	0	17.46729059130757	-7.949951194835561	0	24.37407175133175	0.4254078041780797	-4.529410093305793	0	0	17.46729059130757	-7.949951194835561	0	24.37407175133175	0.4254078041780797	-4.529410093305793	0	0	-7.587970093545438	-11.38066492622747	-19.15194317389378	-28.17516097394414	36.3801448076975	29.06875465543986	14.04174770287802	-55.63747086085018	0	0	0	-2.657021163329341	0	34.56422781442137	-2.425752947326553e-05	0	0
1.24	37.62633648747303	-15.36993685618611	59.94448241427583	0	0.9400000009320483	0	17.47933457622694	-7.952679584463913	0	24.39035235619283	0.4256919543371217	-4.530225533654495	0	0	17.47933457622694	-7.952679584463913	0	24.39035235619283	0.4256919543371217	-4.530225533654495	0	0	-7.576780706177601	-11.38796225948432	-19.17143971299509	-27.89617911281653	36.52383263029664	28.54624213328915	13.66444856074703	-55.61382214045785	0	0	0	-2.659443632582449	0	34.58768654358293	-2.427882261641968e-05	0	0
1.25	37.63223473380416	-15.36466027350057	59.9390367457969	0	0.9400000009320483	0	17.49219845016901	-7.955591629840392	0	24.40773384899796	0.4259953186154829	-4.531095524114345	0	0	17.49219845016901	-7.955591629840392	0	24.40773384899796	0.4259953186154829	-4.531095524114345	0	0	-7.581925830410002	-11.3867774002072	-19.16198243797795	-27.54037292658461	36.71785055679265	27.87598258654935	13.25648094385071	-55.58857272910181	0	0	0	-2.662031801235176	0	34.61273335212051	-2.430157132829957e-05	0	0
